<svg width="687" height="561" viewBox="0 0 687 561" fill="none" xmlns="http://www.w3.org/2000/svg">
<path d="M238.499 178C238.499 178 221.47 152.231 199.999 133.5M199.999 133.5L199.591 133.144C192.782 127.203 188.389 123.369 179.999 119.5C164.847 112.512 147.907 111.46 130.999 110.508M199.999 133.5C199.999 133.5 172.499 100 170.499 87.5M130.999 110.508C121.204 109.956 111.419 109.438 101.999 107.819M130.999 110.508C130.999 110.508 111.097 113.867 96.6885 125M101.999 107.819C92.8844 106.253 84.1109 103.656 75.999 99C65.8015 93.1472 59.1734 87.4775 54.8703 82.5M101.999 107.819C101.999 107.819 93.9245 94.606 94.4699 80.5M54.8703 82.5C46.0485 72.2954 36.9995 55.9999 36.9995 41.9998M54.8703 82.5C54.8703 82.5 64.9986 59.9999 57.9986 48.4999C48.518 32.9247 39.821 7.4351 39.0542 5.16301L39.0516 5.15525C39.0119 5.03757 38.9772 4.93459 38.8936 4.84185C38.6025 4.51909 37.6636 4.11289 35.4995 7.99977C29.4815 18.8084 19.1542 43.1942 23.4991 55.9999C29.1089 72.534 54.8703 82.5 54.8703 82.5ZM94.4699 80.5C94.7159 74.1381 103.716 54.0947 108.999 48.4999M94.4699 80.5C94.4699 80.5 117.626 67.7827 123.499 54.4998C127.407 45.6613 127.424 34.0669 127.01 27.3839C126.83 24.4704 124.063 22.5617 121.269 23.4062C119.345 23.9877 117.218 24.7108 115.499 25.4998C105.731 29.9844 91.1227 38.2385 89.4995 50.4998C87.9845 61.9432 94.4699 80.5 94.4699 80.5ZM96.6885 125C91.8535 128.736 79.6376 148.847 76.9995 154.5M96.6885 125C96.6885 125 68.9974 127.943 63.9995 142C59.2145 155.458 58.7225 164.801 59.0999 170.138C59.3068 173.063 62.2728 174.433 64.9025 173.136C71.8796 169.695 84.6409 163.106 91.9995 157.5C103.182 148.979 96.6885 125 96.6885 125ZM170.499 87.5C168.43 79.071 164.999 70.9998 165.999 50.4998M170.499 87.5C170.499 87.5 180.569 74.7402 182.499 61.9998C184.318 49.9972 176.347 30.851 171.867 21.3054C170.474 18.3373 166.715 17.7412 164.612 20.257C158.59 27.4632 148.499 42.2587 148.499 60.4998C148.499 72.2026 170.499 87.5 170.499 87.5ZM481.499 142C481.499 142 524 129 552.5 124.5M511.999 70.4998C511.999 70.4998 494.804 124.716 483.999 138.5C477.1 147.302 463.825 154.568 450.499 160.091M419.999 183.5C419.999 183.5 431.053 168.151 450.499 160.091M450.499 160.091C450.499 160.091 467.999 131.5 455.999 106M423.499 186.5L379.494 135.725C378.544 134.63 377.165 134 375.715 134H299.994C298.423 134 296.943 134.738 295.998 135.994L264.394 178M423.499 186.5V202.5M423.499 186.5H257.999M423.499 202.5H257.999M423.499 202.5L436.171 263.517C436.653 265.837 438.697 267.5 441.067 267.5H540.499M423.499 202.5H448.499M257.999 202.5V186.5M257.999 202.5L245.802 263.481C245.335 265.818 243.283 267.5 240.9 267.5H105.999M257.999 202.5H204.999M257.999 186.5L264.394 178M105.999 267.5V207.5C105.999 204.739 108.237 202.5 110.999 202.5H123.499M105.999 267.5V411M540.499 267.5V207.5C540.499 204.739 538.26 202.5 535.499 202.5H521.999M540.499 267.5V431C540.499 433.761 538.26 436 535.499 436H110.999C108.237 436 105.999 433.761 105.999 431V411M448.499 202.5V191.5C448.499 188.739 450.737 186.5 453.499 186.5H516.999C519.76 186.5 521.999 188.739 521.999 191.5V202.5M448.499 202.5H521.999M123.499 202.5V191.5C123.499 188.739 125.737 186.5 128.499 186.5H177.499C180.26 186.5 182.499 188.739 182.499 191.5V202.5M123.499 202.5H182.499M182.499 202.5H204.999M204.999 202.5V183C204.999 180.239 207.237 178 209.999 178H264.394M105.999 411H264.394M540.499 410.5H415.999M293.499 316.5C296.499 293.5 318.499 273.999 336.499 276.5M132.999 186V181.5C132.999 178.738 135.238 176.5 137.999 176.5H166.499C169.261 176.5 171.499 178.738 171.499 181.5V185.5M108.499 515C56.4989 469 89.4987 398.5 145.999 398.5C202.499 398.5 270.999 467.459 331.499 476C391.999 484.541 457.049 436.92 456.999 436M540.499 357C555.495 307.667 563.794 279.441 582.499 249.5M582.499 249.5L632.5 207.496M582.499 249.5L585.898 222.312C585.929 222.059 585.941 221.804 585.934 221.55C585.918 220.982 585.877 220.413 585.935 219.847C586.333 215.926 587.43 199.273 578.999 187M632.5 207.496C632.5 207.496 631 195 632.5 188.556C634 182.112 634.5 182.5 642 178.5C649.5 174.5 651 175.41 655.5 170.496C660 165.583 659 184 651.587 195.955C644.174 207.911 632.5 207.496 632.5 207.496ZM602.5 233.5C602.5 233.5 610 233.5 616 240M616 240C627.5 256 654.5 259.5 654.5 259.5M616 240C613.5 243 615.394 262.289 624.5 271C633.662 279.765 644.177 279.489 656.5 276.5C664.422 274.579 674.923 265.619 680.871 260.042C683.264 257.798 682.692 253.961 679.808 252.398C672.355 248.357 658.519 240.928 644 233.5C634.41 228.594 624.826 233.825 616 240ZM540.499 366C540.499 366 555 339 610.5 327M578.499 335.308C578.499 335.308 580.773 318.407 588.499 312.5C596.484 306.395 613.54 309.55 615.596 309.958C615.733 309.986 615.852 310.006 615.991 310.025C618.363 310.339 641.988 313.623 637.87 319.078C637.651 319.369 637.404 319.652 637.203 319.957C635.782 322.118 629.414 331.526 621.5 339C612.5 347.5 595.999 362 579.499 336.668M366.999 475.428C397.499 503 402.999 480 458.499 521M293.499 464.264C325.999 502.186 339.499 489.5 374.499 512.5M374.499 512.5C380.826 513.404 390.437 514.777 391.829 514.976C391.947 514.992 392.055 515.012 392.171 515.039C394.393 515.569 404.625 518.752 408.999 527.5C413.499 536.5 413.827 537.5 414.327 540.5C414.827 543.5 418.999 557 414.327 556C409.655 555 391.499 550.5 383.499 546.246C375.499 541.992 373.499 537 372.999 528.5C372.499 520 373.913 518.748 374.499 512.5ZM374.499 512.5C382.7 521.873 395.499 536.5 395.499 536.5M142.999 358C108.499 299 55.9995 363 55.9995 363M119.999 401.5C158.881 388.539 173.06 372.964 182.478 353M182.478 353C185.413 346.777 188.999 337.5 190.499 329.5M182.478 353C182.478 353 171.999 340.5 174.499 326.5C176.244 316.732 188.651 298.466 196.51 287.654C199.018 284.204 204.221 285.451 204.905 289.66C207.182 303.659 210.242 327.614 206.499 337.5C201.991 349.412 182.478 353 182.478 353ZM116.499 406C184.499 323.5 120.499 298 45.4995 282.5M506.647 95.2092C511.461 93.0857 520.467 88.4866 524 82.4998C528.899 74.1956 526.931 54.2002 525.315 42.9799C524.785 39.2983 520.579 37.7267 517.77 40.1649C508.664 48.0698 492.759 63.3685 492.499 73.9998C492.328 81.0425 498.11 89.6129 501.359 93.8564C502.607 95.4871 504.768 96.038 506.647 95.2092ZM462.755 124.921C465.908 120.016 471.978 109.15 469.499 101.5C467.128 94.1805 454.934 84.0306 447.441 78.3313C444.632 76.1941 440.702 77.7338 440.113 81.2144C438.335 91.7154 436.083 110.747 441.499 118C445.105 122.827 453.447 125.594 457.964 126.789C459.811 127.277 461.722 126.529 462.755 124.921ZM509.999 135.5C507.83 125.2 524.059 111.838 534.499 110.5C547.619 108.818 568.206 112.341 580.275 114.827C584.307 115.658 585.397 120.618 582.068 123.039C571.139 130.986 551.193 144.115 536.999 145.5C525.808 146.592 512.316 146.503 509.999 135.5ZM343.141 225C210.141 225 217.142 419.5 343.141 419.5C469.14 419.5 476.14 225 343.141 225ZM343.499 251C246.976 251 252.056 393 343.499 393C434.941 393 440.021 251 343.499 251ZM585.562 225C592.499 223.5 598.5 220 601 212.5C603.5 205 606.499 193.504 596.999 182C587.499 170.496 575.645 160.734 572.999 157.5C570.353 154.266 571.499 166 567.999 177.5C564.499 189 562.499 190.5 562.999 198.5C563.499 206.5 578.624 226.5 585.562 225ZM424.499 489.5C426.999 489 430.499 487 445.999 489C461.499 491 465.499 499 472.999 511C479.421 521.275 480.711 537.782 480.949 542.315C480.99 543.101 481.52 544.399 480.738 544.307C478.287 544.016 466.445 536.091 458.499 534C448.999 531.5 446.499 532.5 437.999 529.5C429.499 526.5 428.999 524.5 421.999 515C416.735 507.856 415.05 502.409 414.537 500.146C414.368 499.398 414.001 498.641 414.101 497.88C414.519 494.719 422.282 489.943 424.499 489.5ZM78.2984 288.424C76.6838 282.794 71.2416 266.556 61.131 262.141C52.0086 258.156 22.7695 264.863 8.28709 268.589C4.57276 269.545 3.43517 274.099 6.28297 276.668C15.6462 285.114 33.5876 300.262 46.9452 305.234C62.6012 311.061 74.1993 297.013 77.7115 292.032C78.4572 290.975 78.6551 289.668 78.2984 288.424ZM81.5522 343.156C78.9594 340.813 63.6739 327.845 52.8461 337.347C44.0376 345.076 31.9879 363.637 26.3623 372.69C24.709 375.351 25.9644 378.765 28.9933 379.564C39.3214 382.289 61.2405 386.287 75.5596 376.194C93.1123 363.821 83.984 346.88 82.2104 343.948C82.0288 343.648 81.8125 343.391 81.5522 343.156Z" stroke="url(#paint0_linear_2168_102)" stroke-width="8" stroke-linecap="round" stroke-linejoin="round"/>
<defs>
<linearGradient id="paint0_linear_2168_102" x1="11.999" y1="280.35" x2="660.499" y2="280.35" gradientUnits="userSpaceOnUse">
<stop stop-color="#66D45D"/>
<stop offset="0.49" stop-color="#B7E359"/>
<stop offset="1" stop-color="#EBBA5B"/>
</linearGradient>
</defs>
</svg>
