<svg width="948" height="807" viewBox="0 0 948 807" fill="none" xmlns="http://www.w3.org/2000/svg">
<path d="M474.073 742.973C303.164 571.923 323.448 158.586 474.073 7.83777C632.349 166.246 639.668 577.24 474.073 742.973Z" fill="black" stroke="white" stroke-width="14" stroke-linejoin="round"/>
<path d="M473.53 745.36C264.137 624.103 177.272 219.372 284.139 34.8329C478.055 147.128 591.018 542.477 473.53 745.36Z" fill="black" stroke="white" stroke-width="14" stroke-linejoin="round"/>
<path d="M473.963 745.36C683.356 624.103 770.221 219.372 663.355 34.8329C469.438 147.128 356.475 542.477 473.963 745.36Z" fill="black" stroke="white" stroke-width="14" stroke-linejoin="round"/>
<path d="M473.253 746.539C239.529 683.914 50.3914 315.702 105.586 109.72C322.035 167.717 533.932 520.082 473.253 746.539Z" fill="black" stroke="white" stroke-width="14" stroke-linejoin="round"/>
<path d="M474.235 746.152C411.608 512.428 635.919 164.525 841.902 109.333C899.899 325.782 700.692 685.473 474.235 746.152Z" fill="black" stroke="white" stroke-width="14" stroke-linejoin="round"/>
</svg>
