<svg width="443" height="310" viewBox="0 0 443 310" fill="none" xmlns="http://www.w3.org/2000/svg">
<path d="M16.5 73H8.0172C5.80136 73 4.00773 74.8014 4.01724 77.0172L4.98291 302.017C4.99236 304.22 6.78043 306 8.98287 306H434.5C436.709 306 438.5 304.209 438.5 302V77C438.5 74.7909 436.709 73 434.5 73H423.5C421.291 73 419.5 71.2091 419.5 69V60.5C419.5 58.2909 417.709 56.5 415.5 56.5H350.5C348.291 56.5 346.5 58.2909 346.5 60.5V69C346.5 71.2091 344.709 73 342.5 73H325C322.791 73 321 71.2091 321 69V58.0029C321 57.034 320.648 56.0981 320.01 55.3689L276.695 5.86598C275.936 4.99792 274.838 4.5 273.685 4.5H196.964C195.725 4.5 194.556 5.07397 193.799 6.05421L162.201 46.9458C161.444 47.926 160.275 48.5 159.036 48.5H107C104.791 48.5 103 50.2909 103 52.5V69C103 71.2091 101.209 73 99 73H84C81.7909 73 80 71.2091 80 69V60.5C80 58.2909 78.2091 56.5 76 56.5H73.5C71.2909 56.5 69.5 54.7091 69.5 52.5V49.5C69.5 47.2909 67.7091 45.5 65.5 45.5H35C32.7909 45.5 31 47.2909 31 49.5V52.5C31 54.7091 29.2091 56.5 27 56.5H24.5C22.2909 56.5 20.5 58.2909 20.5 60.5V69C20.5 71.2091 18.7091 73 16.5 73Z" fill="#525252"/>
<path d="M241.5 121.001C335.024 121.502 335.975 262.501 241.5 263.993C147.025 262.501 147.976 121.502 241.5 121.001Z" fill="url(#paint0_linear_2169_141)"/>
<path d="M321.5 56.5L277.495 5.72535C276.546 4.62954 275.167 4 273.717 4H197.995C196.424 4 194.944 4.73847 194 5.99392L162.395 48M321.5 56.5V72.5M321.5 56.5H156M321.5 72.5H156M321.5 72.5L334.173 133.517C334.655 135.837 336.699 137.5 339.068 137.5H438.5M321.5 72.5H346.5M156 72.5V56.5M156 72.5L143.804 133.481C143.336 135.818 141.284 137.5 138.901 137.5H4M156 72.5H103M156 56.5L162.395 48M4 137.5V77.5C4 74.7386 6.23858 72.5 9 72.5H21.5M4 137.5V281M438.5 137.5V77.5C438.5 74.7386 436.261 72.5 433.5 72.5H420M438.5 137.5V301C438.5 303.761 436.261 306 433.5 306H8.99999C6.23856 306 4 303.761 4 301V281M346.5 72.5V61.5C346.5 58.7386 348.739 56.5 351.5 56.5H415C417.761 56.5 420 58.7386 420 61.5V72.5M346.5 72.5H420M21.5 72.5V61.5C21.5 58.7386 23.7386 56.5 26.5 56.5H75.5C78.2614 56.5 80.5 58.7386 80.5 61.5V72.5M21.5 72.5H80.5M80.5 72.5H103M103 72.5V53C103 50.2386 105.239 48 108 48H162.395M4 281H162.395M438.5 280.5H314M241.142 95C108.143 95 115.143 289.5 241.142 289.5C367.141 289.5 374.141 95 241.142 95ZM241.5 121C144.977 121 150.057 263 241.5 263C332.943 263 338.023 121 241.5 121Z" stroke="white" stroke-width="8" stroke-linecap="round" stroke-linejoin="round"/>
<path d="M191.5 186.5C194.5 163.5 216.5 144 234.5 146.5" stroke="white" stroke-width="8" stroke-linecap="round" stroke-linejoin="round"/>
<path d="M31.001 55.9998V51.4998C31.001 48.7383 33.2396 46.4998 36.001 46.4998H64.501C67.2624 46.4998 69.501 48.7383 69.501 51.4998V55.4998" stroke="white" stroke-width="8" stroke-linecap="round" stroke-linejoin="round"/>
<defs>
<linearGradient id="paint0_linear_2169_141" x1="171" y1="193" x2="308.757" y2="192.5" gradientUnits="userSpaceOnUse">
<stop stop-color="#66D45D"/>
<stop offset="0.49" stop-color="#B7E359"/>
<stop offset="1" stop-color="#EBBA5B"/>
</linearGradient>
</defs>
</svg>
